<?xml version="1.0" encoding="UTF-8" standalone="no" ?>
<!DOCTYPE svg PUBLIC "-//W3C//DTD SVG 1.1//EN" "http://www.w3.org/Graphics/SVG/1.1/DTD/svg11.dtd">
<svg xmlns="http://www.w3.org/2000/svg" xmlns:xlink="http://www.w3.org/1999/xlink" version="1.1" width="1280" height="1024" viewBox="0 0 1280 1024" xml:space="preserve">
<desc>Created with Fabric.js 5.3.0</desc>
<defs>
</defs>
<g transform="matrix(1 0 0 1 640 512)" id="background-logo"  >
<rect style="stroke: none; stroke-width: 0; stroke-dasharray: none; stroke-linecap: butt; stroke-dashoffset: 0; stroke-linejoin: miter; stroke-miterlimit: 4; fill: rgb(0,0,0); fill-rule: nonzero; opacity: 1;"  paint-order="stroke"  x="-640" y="-512" rx="0" ry="0" width="1280" height="1024" />
</g>
<g transform="matrix(1.9211538461538462 0 0 1.9211538461538462 640 395.4691057442466)" id="logo-logo"  >
<g style=""  paint-order="stroke"   >
		<g transform="matrix(1.9661754964728366 0 0 -1.9661754964728366 -13.451751636630547 -22.824423014774254)"  >
<path style="stroke: none; stroke-width: 1; stroke-dasharray: none; stroke-linecap: butt; stroke-dashoffset: 0; stroke-linejoin: miter; stroke-miterlimit: 4; fill: rgb(241,106,23); fill-rule: nonzero; opacity: 1;"  paint-order="stroke"  transform=" translate(-6.210252050051648, -1.647000000000002)" d="M 0 0 C 0.105 -6.534 3.46 -11.673 7.775 -16.241 C 8.163 -16.65 8.532 -17.067999999999998 8.883000000000001 -17.495 C 9.486 -16.454 10.142000000000001 -15.461000000000002 10.841000000000001 -14.539000000000001 C 11.018 -14.306000000000001 11.195 -14.072000000000001 11.374 -13.838000000000001 C 11.474 -13.706000000000001 11.576 -13.574000000000002 11.677000000000001 -13.441 L 11.681000000000001 -10.033000000000001 L 12.424000000000001 1.1729999999999983 L 11.146 20.788999999999998 L 9.166 20.788999999999998 L 7.923 -7.804 C 6.011 -4.58 5.169 -1.202 5.104 3.025 L 4.831 20.789 L 2.622 20.789 C 2.457 6.492 -0.111 6.927 0 0" stroke-linecap="round" />
</g>
		<g transform="matrix(1.9661754964728366 0 0 -1.9661754964728366 6.149126534251991 4.867995671448938)"  >
<linearGradient id="SVGID_2_397368" gradientUnits="userSpaceOnUse" gradientTransform="matrix(2.4480193 -16.691217 -16.691217 -2.4480193 157.30322 200.12988)"  x1="0" y1="1.4210854715202004e-14" x2="1" y2="1.4210854715202004e-14">
<stop offset="0%" style="stop-color:rgb(246,135,21);stop-opacity: 1"/>
<stop offset="54.6223%" style="stop-color:rgb(246,135,21);stop-opacity: 1"/>
<stop offset="100%" style="stop-color:rgb(234,39,37);stop-opacity: 1"/>
</linearGradient>
<path style="stroke: none; stroke-width: 1; stroke-dasharray: none; stroke-linecap: butt; stroke-dashoffset: 0; stroke-linejoin: miter; stroke-miterlimit: 4; fill: url(#SVGID_2_397368); fill-rule: nonzero; opacity: 1;"  paint-order="stroke"  transform=" translate(-165.62765120919008, -147.09000000000003)" d="M 170.704 180.317 L 170.43 162.553 C 170.37 158.558 169.61100000000002 155.322 167.91500000000002 152.257 L 167.91500000000002 152.257 L 167.91500000000002 152.262 L 166.67100000000002 180.317 L 164.66100000000003 180.317 L 162.60800000000003 149.397 L 162.60800000000003 145.578 C 162.57000000000002 145.52700000000002 162.53000000000003 145.478 162.49000000000004 145.427 L 162.49000000000004 145.427 C 162.43700000000004 145.35899999999998 162.38400000000004 145.291 162.33100000000005 145.22199999999998 L 162.33100000000005 145.22199999999998 C 162.22100000000003 145.07799999999997 162.11100000000005 144.93399999999997 162.00100000000003 144.79 L 162.00100000000003 144.79 C 161.82400000000004 144.559 161.64700000000002 144.326 161.47200000000004 144.094 L 161.47200000000004 144.094 C 160.66600000000003 143.031 159.95100000000005 141.915 159.31400000000005 140.76 L 159.31400000000005 140.76 C 158.32400000000004 138.964 157.54000000000005 137.072 156.95900000000006 135.12199999999999 L 156.95900000000006 135.12199999999999 C 156.43400000000005 133.362 156.07900000000006 131.55499999999998 155.88500000000005 129.732 L 155.88500000000005 129.732 C 155.31600000000006 124.333 156.19900000000004 118.786 158.53100000000003 113.863 L 158.53100000000003 113.863 C 159.61100000000005 115.401 160.47400000000005 117.047 161.09500000000003 118.77 L 161.09500000000003 118.77 C 161.34200000000004 119.458 161.55400000000003 120.161 161.72700000000003 120.88 L 161.72700000000003 120.88 C 161.12700000000004 123.521 160.99700000000004 126.298 161.30300000000003 129.171 L 161.30300000000003 129.171 C 161.30300000000003 129.173 161.30300000000003 129.17499999999998 161.30300000000003 129.177 L 161.30300000000003 129.177 C 161.50500000000002 131.071 161.90200000000002 132.884 162.49000000000004 134.614 L 162.49000000000004 134.614 C 162.49300000000002 134.606 162.49600000000004 134.595 162.50000000000003 134.585 L 162.50000000000003 134.585 L 162.50000000000003 134.64000000000001 C 162.58900000000003 134.901 162.68100000000004 135.161 162.78100000000003 135.419 L 162.78100000000003 135.419 C 162.84200000000004 135.58100000000002 162.91000000000003 135.74200000000002 162.97500000000002 135.90300000000002 L 162.97500000000002 135.90300000000002 C 163.01500000000001 136.00300000000001 163.05500000000004 136.10500000000002 163.098 136.20600000000002 L 163.098 136.20600000000002 C 163.192 136.43 163.292 136.651 163.393 136.872 L 163.393 136.872 C 163.41 136.90800000000002 163.426 136.943 163.442 136.979 L 163.442 136.979 C 164.056 138.29500000000002 164.79600000000002 139.556 165.666 140.76000000000002 L 165.666 140.76000000000002 C 165.667 140.75900000000001 165.667 140.75700000000003 165.66899999999998 140.75600000000003 L 165.66899999999998 140.75600000000003 L 165.837 140.98700000000002 C 166.422 141.77900000000002 167.059 142.54700000000003 167.76 143.28700000000003 L 167.76 143.28700000000003 C 172.076 147.85600000000002 175.429 152.99400000000003 175.534 159.52900000000002 L 175.534 159.52900000000002 C 175.646 166.455 173.077 166.02000000000004 172.91199999999998 180.31700000000004 L 172.91199999999998 180.31700000000004 z" stroke-linecap="round" />
</g>
		<g transform="matrix(1.9661754964728366 0 0 -1.9661754964728366 -28.76733835500886 0.0022005062006371645)"  >
<path style="stroke: none; stroke-width: 1; stroke-dasharray: none; stroke-linecap: butt; stroke-dashoffset: 0; stroke-linejoin: miter; stroke-miterlimit: 4; fill: rgb(241,106,23); fill-rule: nonzero; opacity: 1;"  paint-order="stroke"  transform=" translate(-2.2278856670856086, 44.89487597704534)" d="M 0 0 C -2.848 -1.454 -5.505 -3.286 -7.903 -5.471 C -8.129 -5.678 -8.354 -5.888 -8.577 -6.101 C -10.542 -7.984 -12.251 -10.049 -13.690999999999999 -12.251999999999999 C -17.137 -17.524 -19.035999999999998 -23.601 -19.163 -29.962999999999997 C -19.167 -30.191999999999997 -19.163 -66.118 -19.163 -66.118 C -19.259 -73.06 -17.714 -79.85 -13.359 -85.582 C -5.340999999999999 -96.13499999999999 8.351 -96.53099999999999 16.851 -86.723 C 17.128999999999998 -86.399 17.404 -86.065 17.673 -85.722 C 18.569999999999997 -84.567 19.36 -83.348 20.054 -82.083 C 22.95 -76.80799999999999 24.083 -70.67999999999999 23.455 -64.731 C 23.262999999999998 -62.907999999999994 22.904 -61.102 22.38 -59.340999999999994 C 21.798 -57.391999999999996 21.016 -55.498999999999995 20.029 -53.702999999999996 L 19.956 -53.800999999999995 C 19.117 -54.974999999999994 18.399 -56.202 17.801 -57.480999999999995 C 17.785999999999998 -57.516999999999996 17.77 -57.55199999999999 17.753 -57.587999999999994 C 17.652 -57.80899999999999 17.552 -58.029999999999994 17.458 -58.25399999999999 C 17.415 -58.35399999999999 17.375 -58.456999999999994 17.334 -58.55699999999999 C 17.27 -58.71899999999999 17.201999999999998 -58.87899999999999 17.141 -59.04199999999999 C 17.041999999999998 -59.298999999999985 16.948999999999998 -59.55899999999999 16.86 -59.819999999999986 L 16.86 -59.874999999999986 C 17.442 -61.59699999999999 17.836 -63.399999999999984 18.037 -65.28299999999999 L 18.037 -65.28899999999999 C 18.445999999999998 -69.12699999999998 18.076999999999998 -72.78899999999999 16.851 -76.19299999999998 C 16.105 -78.25899999999999 15.043999999999999 -80.22899999999998 13.645999999999999 -82.08299999999998 C 13.412999999999998 -82.39299999999999 13.169999999999998 -82.69899999999998 12.917 -83.00199999999998 C 6.794 -90.35399999999998 -2.870000000000001 -90.12599999999998 -8.843000000000002 -82.63899999999998 C -12.506000000000002 -78.04799999999999 -13.707 -71.99999999999999 -13.691000000000003 -66.11799999999998 L -13.691000000000003 -30.561999999999983 L -13.681000000000003 -30.561999999999983 C -13.648000000000003 -19.875999999999983 -7.568000000000002 -10.525999999999982 1.4549999999999965 -5.470999999999982 C 5.979999999999997 -2.9349999999999823 11.244999999999996 -1.4789999999999823 16.859999999999996 -1.4789999999999823 C 16.894999999999996 -1.4789999999999823 16.928999999999995 -1.4799999999999822 16.963999999999995 -1.4799999999999822 C 16.918 0.352 16.813 2.179 16.737 4.009 C 10.808 3.99 5.098 2.603 0 0" stroke-linecap="round" />
</g>
		<g transform="matrix(1.9661754964728366 0 0 -1.9661754964728366 35.29534103541238 -0.0021478362168636522)"  >
<linearGradient id="SVGID_3_397369" gradientUnits="userSpaceOnUse" gradientTransform="matrix(77.013588 -53.419857 -53.419857 -77.013588 110.58984 192.72168)"  x1="0" y1="-1.4210854715202004e-14" x2="1" y2="-1.4210854715202004e-14">
<stop offset="0%" style="stop-color:rgb(241,106,23);stop-opacity: 1"/>
<stop offset="54.6223%" style="stop-color:rgb(241,106,23);stop-opacity: 1"/>
<stop offset="100%" style="stop-color:rgb(234,39,37);stop-opacity: 1"/>
</linearGradient>
<path style="stroke: none; stroke-width: 1; stroke-dasharray: none; stroke-linecap: butt; stroke-dashoffset: 0; stroke-linejoin: miter; stroke-miterlimit: 4; fill: url(#SVGID_3_397369); fill-rule: nonzero; opacity: 1;"  paint-order="stroke"  transform=" translate(-180.4519163281579, -149.56709723491667)" d="M 162.377 198.469 C 162.454 196.638 162.559 194.81199999999998 162.604 192.98 L 162.604 192.98 C 168.179 192.962 173.40800000000002 191.509 177.906 188.98899999999998 L 177.906 188.98899999999998 C 186.953 183.91899999999998 193.041 174.53199999999998 193.041 163.81099999999998 L 193.041 163.81099999999998 L 193.041 163.74999999999997 L 193.046 163.74999999999997 L 193.046 128.35699999999997 C 193.046 128.35399999999998 193.046 128.34799999999998 193.047 128.34199999999998 L 193.047 128.34199999999998 C 193.046 122.43199999999999 191.847 116.41199999999998 188.185 111.82099999999998 L 188.185 111.82099999999998 C 182.299 104.44399999999999 172.832 104.11499999999998 166.698 111.13499999999998 L 166.698 111.13499999999998 C 166.026 109.96599999999998 165.282 108.85599999999998 164.484 107.82799999999997 L 164.484 107.82799999999997 C 164.205 107.46999999999997 163.912 107.11299999999997 163.612 106.76499999999997 L 163.612 106.76499999999997 C 163.576 106.72499999999997 163.539 106.68499999999997 163.50199999999998 106.64499999999997 L 163.50199999999998 106.64499999999997 C 172.04399999999998 97.97799999999997 184.993 98.73499999999997 192.69899999999998 108.87799999999997 L 192.69899999999998 108.87799999999997 C 197.00599999999997 114.54699999999997 198.672 121.49899999999997 198.517 128.38099999999997 L 198.517 128.38099999999997 C 198.517 128.38099999999997 198.527 164.44899999999996 198.517 164.76699999999997 L 198.517 164.76699999999997 C 198.34199999999998 171.03399999999996 196.446 177.01799999999997 193.046 182.21699999999996 L 193.046 182.21699999999996 C 191.606 184.41699999999994 189.899 186.47799999999995 187.93699999999998 188.35899999999995 L 187.93699999999998 188.35899999999995 C 187.71399999999997 188.57199999999995 187.48899999999998 188.78199999999995 187.26399999999998 188.98899999999995 L 187.26399999999998 188.98899999999995 C 184.86499999999998 191.17299999999994 182.20799999999997 193.00599999999994 179.35999999999999 194.45999999999995 L 179.35999999999999 194.45999999999995 C 174.22699999999998 197.07999999999996 168.474 198.47099999999995 162.5 198.47099999999995 L 162.5 198.47099999999995 C 162.459 198.47099999999995 162.418 198.46899999999994 162.377 198.46899999999994" stroke-linecap="round" />
</g>
</g>
</g>
<g transform="matrix(1.9211538461538462 0 0 1.9211538461538462 638.4330588942307 683.1780127458246)" id="text-logo"  >
<g style=""  paint-order="stroke"   >
		<g transform="matrix(1 0 0 1 -5.684342e-14 0)" id="text-logo-path-0"  >
<path style="stroke: none; stroke-width: 0.9836065573770492; stroke-dasharray: none; stroke-linecap: butt; stroke-dashoffset: 0; stroke-linejoin: miter; stroke-miterlimit: 4; fill: rgb(242,105,30); fill-rule: nonzero; opacity: 1;"  paint-order="stroke"  transform=" translate(-307.165, 21.21)" d="M 1.11 -39.96 L 1.11 -39.96 Q 1.58 -42.07 2.99 -42.07 L 2.99 -42.07 L 30.32 -42.07 Q 32.31 -41.69 32.31 -40.08 L 32.31 -40.08 L 32.31 -39.64 Q 32.31 -38.03 29.88 -37.76 L 29.88 -37.76 L 18.87 -37.76 L 18.87 -1.99 Q 18.87 -0.35 16.76 0 L 16.76 0 L 16.67 0 Q 14.97 0 14.56 -2.23 L 14.56 -2.23 L 14.56 -37.76 L 3.34 -37.76 Q 1.11 -38.2 1.11 -39.96 Z M 44.2 -2.23 L 44.2 -2.23 L 44.2 -39.55 Q 44.46 -41.98 46.07 -41.98 L 46.07 -41.98 L 46.51 -41.98 Q 48.5 -41.57 48.5 -40.22 L 48.5 -40.22 L 48.5 -22.71 L 69.36 -22.71 L 69.36 -39.9 Q 69.71 -41.98 71.35 -41.98 L 71.35 -41.98 L 71.68 -41.98 Q 73.67 -41.6 73.67 -39.99 L 73.67 -39.99 L 73.67 -1.88 Q 73.67 -0.44 71.56 0 L 71.56 0 L 71.44 0 Q 69.36 -0.38 69.36 -2.11 L 69.36 -2.11 L 69.36 -18.52 L 48.5 -18.52 L 48.5 -1.99 Q 48.5 -0.35 46.42 0 L 46.42 0 L 46.31 0 Q 44.61 0 44.2 -2.23 Z M 86.4 -2.11 L 86.4 -2.11 L 86.4 -40.02 Q 86.72 -42.13 88.51 -42.13 L 88.51 -42.13 L 88.51 -42.25 L 89.07 -42.13 L 110.86 -42.13 L 111.3 -42.25 Q 113.21 -42.25 113.53 -39.81 L 113.53 -39.81 Q 113.09 -37.79 111.1 -37.79 L 111.1 -37.79 L 90.74 -37.79 L 90.74 -22.79 L 104.07 -22.79 L 105.65 -22.91 Q 107.14 -22.91 107.64 -20.68 L 107.64 -20.68 Q 107.64 -19.22 105.85 -18.46 L 105.85 -18.46 L 103.63 -18.57 L 90.74 -18.57 L 90.74 -4.34 L 111.63 -4.34 Q 113.18 -4.34 113.53 -1.99 L 113.53 -1.99 Q 112.94 0 111.54 0 L 111.54 0 L 88.51 0 Q 86.4 -0.38 86.4 -2.11 Z M 147.22 -2.2 L 147.22 -2.2 L 147.22 -39.81 Q 147.63 -42.01 149.33 -42.01 L 149.33 -42.01 L 149.42 -42.01 Q 151.53 -41.66 151.53 -40.02 L 151.53 -40.02 L 151.53 -20.89 Q 172.04 -41.37 172.22 -41.37 L 172.22 -41.37 L 173.01 -41.48 L 173.21 -41.48 Q 175.2 -41.1 175.2 -39.49 L 175.2 -39.49 L 175.2 -39.14 Q 175.2 -38.06 172.89 -36.15 L 172.89 -36.15 L 159.27 -22.44 L 174.88 -3.11 L 174.97 -2.43 L 174.97 -2.11 Q 174.97 -0.47 172.89 -0.12 L 172.89 -0.12 L 172.77 -0.12 Q 171.45 -0.12 169.11 -3.54 L 169.11 -3.54 L 156.07 -19.37 L 151.53 -14.71 L 151.53 -1.99 Q 151.53 -0.35 149.42 0 L 149.42 0 L 149.33 0 Q 147.63 0 147.22 -2.2 Z M 186.7 -2.11 L 186.7 -2.11 L 186.7 -2.23 Q 187.14 -4.37 188.61 -4.37 L 188.61 -4.37 L 189.28 -4.37 L 189.28 -37.97 L 188.81 -37.97 Q 186.97 -37.97 186.7 -40.31 L 186.7 -40.31 L 186.7 -40.43 Q 186.7 -41.81 188.81 -42.42 L 188.81 -42.42 L 189.37 -42.33 L 193.53 -42.33 L 193.97 -42.42 Q 196.2 -41.95 196.2 -40.2 L 196.2 -40.2 Q 195.82 -37.97 194.09 -37.97 L 194.09 -37.97 L 193.62 -37.97 L 193.62 -4.37 L 194.29 -4.37 Q 195.76 -4.37 196.2 -2.23 L 196.2 -2.23 L 196.2 -2.11 Q 195.82 0 194.09 0 L 194.09 0 L 188.81 0 Q 186.7 -0.38 186.7 -2.11 Z M 208.81 -39.96 L 208.81 -39.96 Q 209.28 -42.07 210.69 -42.07 L 210.69 -42.07 L 238.02 -42.07 Q 240.01 -41.69 240.01 -40.08 L 240.01 -40.08 L 240.01 -39.64 Q 240.01 -38.03 237.58 -37.76 L 237.58 -37.76 L 226.56 -37.76 L 226.56 -1.99 Q 226.56 -0.35 224.46 0 L 224.46 0 L 224.37 0 Q 222.67 0 222.26 -2.23 L 222.26 -2.23 L 222.26 -37.76 L 211.04 -37.76 Q 208.81 -38.2 208.81 -39.96 Z M 246.83 -21.04 L 246.83 -21.04 Q 246.83 -31.96 256.79 -38.85 L 256.79 -38.85 Q 262.12 -42.07 267.74 -42.07 L 267.74 -42.07 Q 274.28 -42.07 279.93 -38.09 L 279.93 -38.09 Q 280.37 -37.24 280.37 -36.77 L 280.37 -36.77 L 280.37 -36.53 Q 280.37 -34.66 278.06 -34.42 L 278.06 -34.42 L 277.94 -34.42 L 274.07 -36.42 Q 270.2 -37.65 267.74 -37.65 L 267.74 -37.65 Q 259.86 -37.65 254.12 -30.44 L 254.12 -30.44 Q 251.25 -25.61 251.25 -21.04 L 251.25 -21.04 Q 251.25 -11.81 259.89 -6.42 L 259.89 -6.42 Q 263.73 -4.42 267.54 -4.42 L 267.54 -4.42 L 267.86 -4.42 Q 272.72 -4.42 277.7 -7.53 L 277.7 -7.53 L 278.38 -7.53 Q 280.37 -7.09 280.37 -5.54 L 280.37 -5.54 L 280.37 -5.21 Q 280.37 -2.87 272.96 -0.67 L 272.96 -0.67 Q 270.64 0 268.1 0 L 268.1 0 L 267.54 0 Q 257.14 0 250.14 -9.64 L 250.14 -9.64 Q 246.83 -15.21 246.83 -21.04 Z M 293.22 -2.23 L 293.22 -2.23 L 293.22 -39.55 Q 293.48 -41.98 295.09 -41.98 L 295.09 -41.98 L 295.53 -41.98 Q 297.53 -41.57 297.53 -40.22 L 297.53 -40.22 L 297.53 -22.71 L 318.39 -22.71 L 318.39 -39.9 Q 318.74 -41.98 320.38 -41.98 L 320.38 -41.98 L 320.7 -41.98 Q 322.69 -41.6 322.69 -39.99 L 322.69 -39.99 L 322.69 -1.88 Q 322.69 -0.44 320.58 0 L 320.58 0 L 320.47 0 Q 318.39 -0.38 318.39 -2.11 L 318.39 -2.11 L 318.39 -18.52 L 297.53 -18.52 L 297.53 -1.99 Q 297.53 -0.35 295.45 0 L 295.45 0 L 295.33 0 Q 293.63 0 293.22 -2.23 Z M 335.42 -2.11 L 335.42 -2.11 L 335.42 -40.02 Q 335.75 -42.13 337.53 -42.13 L 337.53 -42.13 L 337.53 -42.25 L 338.09 -42.13 L 359.89 -42.13 L 360.33 -42.25 Q 362.23 -42.25 362.55 -39.81 L 362.55 -39.81 Q 362.11 -37.79 360.12 -37.79 L 360.12 -37.79 L 339.76 -37.79 L 339.76 -22.79 L 353.09 -22.79 L 354.67 -22.91 Q 356.17 -22.91 356.66 -20.68 L 356.66 -20.68 Q 356.66 -19.22 354.88 -18.46 L 354.88 -18.46 L 352.65 -18.57 L 339.76 -18.57 L 339.76 -4.34 L 360.65 -4.34 Q 362.2 -4.34 362.55 -1.99 L 362.55 -1.99 Q 361.97 0 360.56 0 L 360.56 0 L 337.53 0 Q 335.42 -0.38 335.42 -2.11 Z M 373.7 -2.31 L 373.7 -2.31 L 373.7 -39.49 Q 373.97 -41.92 375.58 -41.92 L 375.58 -41.92 L 376.02 -41.92 Q 377.42 -41.92 378.45 -39.73 L 378.45 -39.73 Q 380.09 -37.88 402.5 -8.94 L 402.5 -8.94 Q 402.73 -8.94 402.73 -8.61 L 402.73 -8.61 L 402.82 -8.5 L 402.94 -8.5 L 402.94 -39.93 Q 403.32 -41.92 404.93 -41.92 L 404.93 -41.92 L 405.25 -41.92 Q 406.89 -41.92 407.25 -39.84 L 407.25 -39.84 L 407.25 -2.2 Q 407.25 -0.38 404.93 0 L 404.93 0 Q 403.67 0 401.06 -3.87 L 401.06 -3.87 L 378.01 -33.31 L 378.01 -2.11 Q 378.01 -0.47 375.9 -0.12 L 375.9 -0.12 L 375.81 -0.12 Q 374.11 -0.12 373.7 -2.31 Z M 441.7 -2.11 L 441.7 -2.11 L 441.7 -39.99 Q 442.03 -42.1 443.81 -42.1 L 443.81 -42.1 L 443.81 -42.22 L 444.37 -42.1 L 450.02 -42.1 L 451.25 -42.22 Q 460.72 -42.22 467.69 -33.98 L 467.69 -33.98 Q 472.14 -28.21 472.14 -20.89 L 472.14 -20.89 Q 472.14 -10.81 463.27 -3.9 L 463.27 -3.9 Q 457.64 0 451.37 0 L 451.37 0 L 443.81 0 Q 441.7 -0.38 441.7 -2.11 Z M 446.04 -37.88 L 446.04 -4.34 L 450.81 -4.34 Q 461.39 -4.34 466.49 -14.56 L 466.49 -14.56 Q 467.81 -18.05 467.81 -21.21 L 467.81 -21.21 Q 467.81 -28.86 461.04 -34.54 L 461.04 -34.54 Q 456.85 -37.88 448.59 -37.88 L 448.59 -37.88 L 446.04 -37.88 Z M 483.82 -2.11 L 483.82 -2.11 L 483.82 -2.23 Q 484.26 -4.37 485.72 -4.37 L 485.72 -4.37 L 486.4 -4.37 L 486.4 -37.97 L 485.93 -37.97 Q 484.08 -37.97 483.82 -40.31 L 483.82 -40.31 L 483.82 -40.43 Q 483.82 -41.81 485.93 -42.42 L 485.93 -42.42 L 486.49 -42.33 L 490.65 -42.33 L 491.09 -42.42 Q 493.31 -41.95 493.31 -40.2 L 493.31 -40.2 Q 492.93 -37.97 491.2 -37.97 L 491.2 -37.97 L 490.73 -37.97 L 490.73 -4.37 L 491.41 -4.37 Q 492.87 -4.37 493.31 -2.23 L 493.31 -2.23 L 493.31 -2.11 Q 492.93 0 491.2 0 L 491.2 0 L 485.93 0 Q 483.82 -0.38 483.82 -2.11 Z M 504.81 -2.08 L 504.81 -2.08 L 504.81 -2.2 L 508.56 -12.33 Q 518.38 -37.91 519.23 -40.72 L 519.23 -40.72 Q 520.22 -41.84 521.1 -41.84 L 521.1 -41.84 Q 523.12 -41.84 524.09 -37.76 L 524.09 -37.76 Q 537.39 -3.13 537.51 -2.31 L 537.51 -2.31 L 537.51 -1.99 Q 537.51 -0.35 535.43 0 L 535.43 0 L 535.31 0 Q 533.38 0 532.56 -3.75 L 532.56 -3.75 L 527.61 -16.61 L 514.72 -16.61 L 508.68 -0.67 Q 507.8 0 507.13 0 L 507.13 0 L 506.89 0 Q 504.81 -0.38 504.81 -2.08 Z M 521.1 -33.46 L 516.47 -20.92 L 525.94 -20.92 L 525.94 -21.04 L 521.22 -33.46 L 521.1 -33.46 Z M 547.9 -2.23 L 547.9 -2.23 L 547.9 -39.58 Q 548.16 -42.04 549.77 -42.04 L 549.77 -42.04 L 559 -42.04 Q 564.89 -42.04 568.64 -35.83 L 568.64 -35.83 Q 569.84 -33.43 569.84 -30.82 L 569.84 -30.82 L 569.84 -30.38 Q 569.84 -24.58 564.19 -20.86 L 564.19 -20.86 L 563.1 -20.3 Q 573.18 -2.93 573.18 -2.55 L 573.18 -2.55 L 573.18 -1.99 Q 573.18 -0.35 571.07 0 L 571.07 0 L 570.95 0 Q 569.37 0 567.64 -3.78 L 567.64 -3.78 L 558.53 -19.31 L 552.23 -19.31 L 552.23 -1.99 Q 552.23 -0.35 550.12 0 L 550.12 0 L 550.01 0 Q 548.31 0 547.9 -2.23 Z M 552.23 -37.82 L 552.23 -23.61 L 558.53 -23.61 Q 563.77 -23.61 565.42 -29.27 L 565.42 -29.27 L 565.53 -30.18 L 565.53 -31.05 Q 565.53 -35.21 560.87 -37.38 L 560.87 -37.38 Q 559.56 -37.82 556.77 -37.82 L 556.77 -37.82 L 552.23 -37.82 Z M 583.57 -39.2 L 583.45 -39.87 Q 583.92 -41.98 585.32 -41.98 L 585.32 -41.98 L 585.79 -41.98 Q 587.23 -41.98 588.11 -39.87 L 588.11 -39.87 L 598.22 -24.76 L 598.33 -24.76 Q 609.23 -41.22 609.67 -41.54 L 609.67 -41.54 Q 610.26 -41.98 610.67 -41.98 L 610.67 -41.98 L 611.34 -41.98 Q 612.69 -41.98 613.22 -39.87 L 613.22 -39.87 Q 613.22 -38.94 609.44 -33.75 L 609.44 -33.75 L 600.44 -20.33 L 600.44 -2.43 Q 600.18 0 598.57 0 L 598.57 0 L 598.1 0 Q 596.66 0 596.11 -1.79 L 596.11 -1.79 L 596.11 -19.98 Q 596.11 -20.39 591.45 -27.33 L 591.45 -27.33 L 583.57 -39.2 Z" stroke-linecap="round" />
</g>
</g>
</g>
</svg>